# xmcd CD database file
#
# Track frame offsets:
#	150
#	18551
#	38206
#	50094
#	65625
#	82048
#	95253
#	112596
#	130858
#	150903
#	163641
#	177762
#
# Disc length: 2571 seconds
#
# Revision: 0
# Processed by: cddbd v1.5.1PL2 Copyright (c) Steve Scherf et al.
# Submitted via: CDex 1.51
#
DISCID=8f0a090c
DTITLE=Texas Tornados - Are You Ready
DYEAR=1900
DGENRE=Country
TTITLE0=Fast as you
TTITLE1=Don't close your eyes
TTITLE2=Love bug
TTITLE3=Some beach
TTITLE4=No shirt, No shoes
TTITLE5=Trouble
TTITLE6=Paint me a Birmingham
TTITLE7=5 O'clock somewhere
TTITLE8=Who wouldn't wanna be me
TTITLE9=The chair
TTITLE10=On a good night
TTITLE11=The cowboy rides away
EXTD=
EXTT0=
EXTT1=
EXTT2=
EXTT3=
EXTT4=
EXTT5=
EXTT6=
EXTT7=
EXTT8=
EXTT9=
EXTT10=
EXTT11=
PLAYORDER=
